# File created by Blade
# Date/Time:  Tue Jan 27 19:54:25 2015
# Frame Rate: 120.000 fps
#------------------------------------------------------
:FULLY-SPECIFIED
:DEGREES
2490
root 7.437470 33.443524 0.542848 3.427671 -25.313625 -27.128095
Spine 12.033464 15.540243 21.239442
Head 3.005713 -5.095758 7.353482
LeftShoulder -16.355374 -1.720861 30.052307
LeftArm 4.209774 -9.927054 -75.098885
LeftForeArm -45.791499 -0.000000 131.990685
LeftHand 4.299310 -0.000000 -32.858623
LeftHandThumb1 -26.253704 0.000000 33.147579
RightShoulder -16.545773 -17.426025 -22.174378
RightArm 3.106835 -4.773020 76.865966
RightForeArm -20.714741 -0.000000 17.580503
RightHand 17.040161 -0.000000 6.692966
RightHandThumb1 -24.326973 -0.000000 -32.862282
LeftUpLeg 12.455489 14.008188 14.418320
LeftLeg 2.227279 -0.000000 -0.000000
LeftFoot -26.176842 27.249546 -17.119537
LeftToeBase 18.318378 -0.000000 -0.000000
RightUpLeg -67.368019 -44.370284 -11.214965
RightLeg 77.364772 -0.000000 -0.000000
RightFoot 35.723914 -15.487191 20.403777
RightToeBase 6.928662 -0.000000 -0.000000
2491
root 7.469380 33.452325 0.520680 3.413654 -25.308514 -27.307393
Spine 12.229809 15.514805 21.568016
Head 2.937829 -5.214160 7.273954
LeftShoulder -16.278480 -1.739862 30.062165
LeftArm 4.143112 -9.816535 -75.376034
LeftForeArm -45.603097 -0.000000 132.061506
LeftHand 4.350454 -0.000000 -32.779699
LeftHandThumb1 -26.253704 0.000000 33.147579
RightShoulder -16.504449 -17.312256 -22.162583
RightArm 3.231795 -4.722858 76.720242
RightForeArm -20.656541 0.000000 17.477487
RightHand 17.083202 -0.000000 7.045227
RightHandThumb1 -24.326973 -0.000000 -32.862282
LeftUpLeg 12.293244 13.988224 14.554598
LeftLeg 2.606654 -0.000000 -0.000000
LeftFoot -26.350067 27.271358 -17.191349
LeftToeBase 18.328502 -0.000000 -0.000000
RightUpLeg -67.265941 -44.174764 -12.046820
RightLeg 73.690075 -0.000000 -0.000000
RightFoot 36.016335 -14.936825 20.036143
RightToeBase 6.606669 -0.000000 -0.000000
2492
root 7.503905 33.464972 0.497538 3.392529 -25.228928 -27.535355
Spine 12.465162 15.399397 21.991235
Head 2.821421 -5.281239 7.111926
LeftShoulder -16.226218 -1.744172 30.019149
LeftArm 4.069246 -9.737061 -75.705037
LeftForeArm -45.346915 -0.000000 132.170113
LeftHand 4.341022 -0.000000 -32.638601
LeftHandThumb1 -26.253704 0.000000 33.147579
RightShoulder -16.460480 -17.187675 -22.189140
RightArm 3.381879 -4.658150 76.573207
RightForeArm -20.567857 0.000000 17.357952
RightHand 17.063919 -0.000000 7.219112
RightHandThumb1 -24.326973 -0.000000 -32.862282
LeftUpLeg 12.122244 13.907850 14.743387
LeftLeg 2.992769 -0.000000 -0.000000
LeftFoot -26.547881 27.268857 -17.279584
LeftToeBase 18.342469 -0.000000 -0.000000
RightUpLeg -66.863677 -43.998461 -12.952374
RightLeg 69.778141 -0.000000 -0.000000
RightFoot 36.121058 -14.336940 19.914626
RightToeBase 5.893164 -0.000000 -0.000000
2493
root 7.540030 33.475444 0.473000 3.382905 -25.154596 -27.726251
Spine 12.675655 15.280719 22.356824
Head 2.699249 -5.327579 6.964172
LeftShoulder -16.185035 -1.774207 29.978277
LeftArm 3.949081 -9.763105 -76.067776
LeftForeArm -45.027239 0.000000 132.305018
LeftHand 4.223647 -0.000000 -32.583015
LeftHandThumb1 -26.253704 0.000000 33.147579
RightShoulder -16.398117 -17.099299 -22.216851
RightArm 3.585385 -4.571998 76.446668
RightForeArm -20.597866 0.000000 17.262995
RightHand 16.986869 -0.000000 7.382529
RightHandThumb1 -24.326973 -0.000000 -32.862282
LeftUpLeg 11.946676 13.760265 14.864727
LeftLeg 3.312690 -0.000000 -0.000000
LeftFoot -26.690825 27.364099 -17.344569
LeftToeBase 18.347761 -0.000000 -0.000000
RightUpLeg -66.368605 -43.774417 -13.925128
RightLeg 65.734977 -0.000000 -0.000000
RightFoot 36.214221 -13.707609 19.663995
RightToeBase 5.056047 -0.000000 -0.000000
2494
root 7.579354 33.485905 0.444369 3.386181 -25.067789 -27.925067
Spine 12.893875 15.141397 22.740720
Head 2.540985 -5.367682 6.795887
LeftShoulder -16.175305 -1.773500 29.909761
LeftArm 3.857221 -9.788792 -76.432865
LeftForeArm -44.666758 0.000000 132.431752
LeftHand 4.193976 -0.000000 -32.416769
LeftHandThumb1 -26.253704 0.000000 33.147579
RightShoulder -16.291890 -16.884673 -22.297594
RightArm 3.668720 -4.500215 76.321571
RightForeArm -20.686011 -0.000000 17.181175
RightHand 16.934663 0.000000 7.597602
RightHandThumb1 -24.326973 -0.000000 -32.862282
LeftUpLeg 11.736751 13.549207 14.979531
LeftLeg 3.667356 -0.000000 -0.000000
LeftFoot -26.877106 27.479466 -17.453268
LeftToeBase 18.255673 -0.000000 -0.000000
RightUpLeg -65.766349 -43.540602 -14.869176
RightLeg 61.515777 -0.000000 -0.000000
RightFoot 36.101672 -13.364863 19.498447
RightToeBase 5.246915 -0.000000 -0.000000
2495
root 7.626374 33.495670 0.415160 3.410455 -24.968442 -28.140429
Spine 13.111434 14.987305 23.181444
Head 2.364073 -5.406339 6.552319
LeftShoulder -16.184502 -1.725559 29.807363
LeftArm 3.779078 -9.761860 -76.825375
LeftForeArm -44.190173 -0.000000 132.575546
LeftHand 4.269853 -0.000000 -32.303276
LeftHandThumb1 -26.253704 0.000000 33.147579
RightShoulder -16.202704 -16.754409 -22.406585
RightArm 3.850472 -4.450102 76.156834
RightForeArm -20.451476 -0.000000 17.095452
RightHand 16.985228 -0.000000 8.070610
RightHandThumb1 -24.326973 -0.000000 -32.862282
LeftUpLeg 11.487295 13.297729 15.086015
LeftLeg 4.052125 -0.000000 -0.000000
LeftFoot -27.099770 27.597925 -17.600623
LeftToeBase 18.231321 -0.000000 -0.000000
RightUpLeg -64.994296 -43.307288 -15.848361
RightLeg 57.126308 -0.000000 -0.000000
RightFoot 35.894809 -13.349043 19.621640
RightToeBase 5.918973 -0.000000 -0.000000
2496
root 7.663954 33.506326 0.385099 3.469669 -24.865568 -28.328880
Spine 13.246237 14.876052 23.522041
Head 2.218420 -5.446433 6.402593
LeftShoulder -16.184973 -1.742839 29.703684
LeftArm 3.675015 -9.820739 -77.204825
LeftForeArm -43.928040 -0.000000 132.690077
LeftHand 4.205206 -0.000000 -32.158862
LeftHandThumb1 -26.253704 0.000000 33.147579
RightShoulder -16.111914 -16.563340 -22.465273
RightArm 3.953896 -4.593483 76.019501
RightForeArm -20.540300 -0.000000 16.992328
RightHand 16.846705 0.000000 7.961446
RightHandThumb1 -24.326973 -0.000000 -32.862282
LeftUpLeg 11.200841 13.053952 15.174511
LeftLeg 4.424334 -0.000000 -0.000000
LeftFoot -27.301007 27.717984 -17.757487
LeftToeBase 18.267771 -0.000000 -0.000000
RightUpLeg -64.202067 -43.078372 -16.799184
RightLeg 52.717890 -0.000000 -0.000000
RightFoot 35.365345 -13.429240 19.735174
RightToeBase 6.504440 -0.000000 -0.000000
2497
root 7.704765 33.514198 0.355922 3.523349 -24.793560 -28.477920
Spine 13.384042 14.793003 23.829904
Head 2.066028 -5.483287 6.234537
LeftShoulder -16.184680 -1.827791 29.584510
LeftArm 3.522881 -9.925284 -77.599769
LeftForeArm -43.726536 -0.000000 132.789080
LeftHand 4.203902 -0.000000 -32.150207
LeftHandThumb1 -26.253704 0.000000 33.147579
RightShoulder -16.000388 -16.358993 -22.554758
RightArm 4.017215 -4.613462 75.905450
RightForeArm -20.434127 0.000000 16.917234
RightHand 16.818853 0.000000 8.063569
RightHandThumb1 -24.326973 -0.000000 -32.862282
LeftUpLeg 10.908773 12.792776 15.201613
LeftLeg 4.808523 -0.000000 -0.000000
LeftFoot -27.555855 27.884054 -17.955695
LeftToeBase 18.130407 -0.000000 -0.000000
RightUpLeg -63.221806 -42.750970 -17.931719
RightLeg 48.194201 -0.000000 -0.000000
RightFoot 34.825067 -13.744909 20.180218
RightToeBase 7.026869 -0.000000 -0.000000
2498
root 7.743585 33.524321 0.325263 3.586761 -24.686527 -28.650529
Spine 13.516653 14.685164 24.160858
Head 1.904004 -5.516491 6.053808
LeftShoulder -16.184537 -1.878965 29.463768
LeftArm 3.427983 -10.119863 -78.122634
LeftForeArm -43.965514 0.000000 132.794550
LeftHand 4.177164 -0.000000 -32.082888
LeftHandThumb1 -26.253704 0.000000 33.147579
RightShoulder -15.892908 -16.171587 -22.636477
RightArm 4.113017 -4.621291 75.789364
RightForeArm -20.295402 -0.000000 16.813722
RightHand 16.722479 -0.000000 8.126411
RightHandThumb1 -24.326973 -0.000000 -32.862282
LeftUpLeg 10.580263 12.519312 15.263971
LeftLeg 5.215926 -0.000000 -0.000000
LeftFoot -27.776026 28.048604 -18.146141
LeftToeBase 18.301516 -0.000000 -0.000000
RightUpLeg -62.055728 -42.349647 -19.185699
RightLeg 43.719534 -0.000000 -0.000000
RightFoot 34.213722 -14.180548 20.518117
RightToeBase 7.005342 -0.000000 -0.000000
2499
root 7.772637 33.534000 0.297088 3.636620 -24.606764 -28.837317
Spine 13.662767 14.655839 24.470852
Head 1.741065 -5.609906 5.957159
LeftShoulder -16.141887 -1.987231 29.389051
LeftArm 3.253310 -10.280687 -78.655167
LeftForeArm -44.069841 -0.000000 132.883594
LeftHand 4.072515 -0.000000 -32.047200
LeftHandThumb1 -26.253704 0.000000 33.147579
RightShoulder -15.834659 -16.021092 -22.675483
RightArm 4.266033 -4.647980 75.677619
RightForeArm -20.217561 -0.000000 16.610274
RightHand 16.543366 -0.000000 8.038249
RightHandThumb1 -24.326973 -0.000000 -32.862282
LeftUpLeg 10.317609 12.301303 15.362309
LeftLeg 5.586654 -0.000000 -0.000000
LeftFoot -28.101027 28.162981 -18.448933
LeftToeBase 18.311849 -0.000000 -0.000000
RightUpLeg -60.766177 -41.822128 -20.568711
RightLeg 39.436593 -0.000000 -0.000000
RightFoot 33.372273 -14.869791 20.959511
RightToeBase 6.793418 -0.000000 -0.000000
2500
root 7.805743 33.541229 0.267962 3.667075 -24.508598 -28.955078
Spine 13.792748 14.555255 24.712447
Head 1.599591 -5.633502 5.803368
LeftShoulder -16.126065 -2.087386 29.278992
LeftArm 3.049901 -10.446006 -79.236451
LeftForeArm -43.974393 -0.000000 132.977607
LeftHand 4.246072 0.000000 -32.480230
LeftHandThumb1 -26.253704 0.000000 33.147579
RightShoulder -15.689721 -15.801845 -22.755368
RightArm 4.322710 -4.350100 75.658106
RightForeArm -20.244165 -0.000000 16.455805
RightHand 16.760368 -0.000000 7.730933
RightHandThumb1 -24.326973 -0.000000 -32.862282
LeftUpLeg 10.023684 12.148382 15.408835
LeftLeg 5.964530 -0.000000 -0.000000
LeftFoot -28.274821 28.267167 -18.593393
LeftToeBase 18.396862 -0.000000 -0.000000
RightUpLeg -59.401749 -41.245700 -22.122614
RightLeg 35.371647 -0.000000 -0.000000
RightFoot 32.343980 -16.089960 21.350122
RightToeBase 6.740923 -0.000000 -0.000000
